ffmpeg version 3.4.8-0ubuntu0.2 Copyright (c) 2000-2020 the FFmpeg developers
  built with gcc 7 (Ubuntu 7.5.0-3ubuntu1~18.04)
  configuration: --prefix=/usr --extra-version=0ubuntu0.2 --toolchain=hardened --libdir=/usr/lib/x86_64-linux-gnu --incdir=/usr/include/x86_64-linux-gnu --enable-gpl --disable-stripping --enable-avresample --enable-avisynth --enable-gnutls --enable-ladspa --enable-libass --enable-libbluray --enable-libbs2b --enable-libcaca --enable-libcdio --enable-libflite --enable-libfontconfig --enable-libfreetype --enable-libfribidi --enable-libgme --enable-libgsm --enable-libmp3lame --enable-libmysofa --enable-libopenjpeg --enable-libopenmpt --enable-libopus --enable-libpulse --enable-librubberband --enable-librsvg --enable-libshine --enable-libsnappy --enable-libsoxr --enable-libspeex --enable-libssh --enable-libtheora --enable-libtwolame --enable-libvorbis --enable-libvpx --enable-libwavpack --enable-libwebp --enable-libx265 --enable-libxml2 --enable-libxvid --enable-libzmq --enable-libzvbi --enable-omx --enable-openal --enable-opengl --enable-sdl2 --enable-libdc1394 --enable-libdrm --enable-libiec61883 --enable-chromaprint --enable-frei0r --enable-libopencv --enable-libx264 --enable-shared
  libavutil      55. 78.100 / 55. 78.100
  libavcodec     57.107.100 / 57.107.100
  libavformat    57. 83.100 / 57. 83.100
  libavdevice    57. 10.100 / 57. 10.100
  libavfilter     6.107.100 /  6.107.100
  libavresample   3.  7.  0 /  3.  7.  0
  libswscale      4.  8.100 /  4.  8.100
  libswresample   2.  9.100 /  2.  9.100
  libpostproc    54.  7.100 / 54.  7.100
[rawvideo @ 0x5579963bda20] Estimating duration from bitrate, this may be inaccurate
Input #0, rawvideo, from '../../SVC-Encoder-20220109T061506Z-001/SVC-Encoder/Dataset/RollerCoaster/ERP_8x8/tile_yuv/Tile_63_480x240.yuv':
  Duration: 00:00:10.00, start: 0.000000, bitrate: 41472 kb/s
    Stream #0:0: Video: rawvideo (I420 / 0x30323449), yuv420p, 480x240, 41472 kb/s, 30 tbr, 30 tbn, 30 tbc
Stream mapping:
  Stream #0:0 -> #0:0 (rawvideo (native) -> h264 (libx264))
Press [q] to stop, [?] for help
[libx264 @ 0x5579963cac60] using cpu capabilities: MMX2 SSE2Fast LZCNT SSSE3 SSE4.2 AVX
[libx264 @ 0x5579963cac60] profile High, level 2.1
Output #0, rawvideo, to 'RollerCoaster_Tile_63_480x240_x264_QP_32.h264':
  Metadata:
    encoder         : Lavf57.83.100
    Stream #0:0: Video: h264 (libx264), yuv420p, 480x240, q=-1--1, 30 fps, 30 tbn, 30 tbc
    Metadata:
      encoder         : Lavc57.107.100 libx264
    Side data:
      cpb: bitrate max/min/avg: 0/0/0 buffer size: 0 vbv_delay: -1
frame=  243 fps=0.0 q=38.0 PSNR=Y:nan U:nan V:nan *:nan size=      36kB time=00:00:06.66 bitrate=  44.1kbits/s speed=13.3x    frame=  300 fps=0.0 q=38.0 LPSNR=Y:inf U:inf V:inf *:inf size=      55kB time=00:00:09.93 bitrate=  45.3kbits/s speed=14.6x    
video:55kB audio:0kB subtitle:0kB other streams:0kB global headers:0kB muxing overhead: 0.000000%
[libx264 @ 0x5579963cac60] frame I:2     Avg QP:30.16  size:  4511  PSNR Mean Y:41.84 U:45.09 V:43.35 Avg:42.48 Global:42.46
[libx264 @ 0x5579963cac60] frame P:78    Avg QP:30.57  size:   331  PSNR Mean Y:40.73 U:44.86 V:44.23 Avg:41.66 Global:41.64
[libx264 @ 0x5579963cac60] frame B:220   Avg QP:37.41  size:    97  PSNR Mean Y:40.68 U:44.85 V:44.24 Avg:41.62 Global:41.61
[libx264 @ 0x5579963cac60] consecutive B-frames:  1.0%  2.7%  3.0% 93.3%
[libx264 @ 0x5579963cac60] mb I  I16..4: 36.7% 45.6% 17.8%
[libx264 @ 0x5579963cac60] mb P  I16..4:  1.2%  0.2%  0.0%  P16..4: 31.0%  2.2%  0.3%  0.0%  0.0%    skip:64.9%
[libx264 @ 0x5579963cac60] mb B  I16..4:  0.1%  0.0%  0.0%  B16..8: 18.1%  0.2%  0.0%  direct: 0.0%  skip:81.6%  L0:43.3% L1:56.5% BI: 0.3%
[libx264 @ 0x5579963cac60] 8x8 transform intra:33.2% inter:90.8%
[libx264 @ 0x5579963cac60] coded y,uvDC,uvAC intra: 24.0% 35.2% 10.1% inter: 0.8% 0.8% 0.0%
[libx264 @ 0x5579963cac60] i16 v,h,dc,p: 19% 68%  9%  4%
[libx264 @ 0x5579963cac60] i8 v,h,dc,ddl,ddr,vr,hd,vl,hu:  3% 45% 27%  5%  2%  1%  6%  2%  8%
[libx264 @ 0x5579963cac60] i4 v,h,dc,ddl,ddr,vr,hd,vl,hu:  6% 68% 16%  1%  1%  1%  6%  0%  2%
[libx264 @ 0x5579963cac60] i8c dc,h,v,p: 36% 58%  3%  3%
[libx264 @ 0x5579963cac60] Weighted P-Frames: Y:2.6% UV:0.0%
[libx264 @ 0x5579963cac60] ref P L0: 57.5% 12.2% 24.2%  6.1%  0.1%
[libx264 @ 0x5579963cac60] ref B L0: 69.4% 23.5%  7.1%
[libx264 @ 0x5579963cac60] ref B L1: 80.1% 19.9%
[libx264 @ 0x5579963cac60] PSNR Mean Y:40.702 U:44.854 V:44.230 Avg:41.639 Global:41.626 kb/s:45.01
